first trial
nRows=32
nColumns=38

# SIMM Motion File Header:
name Sujet_06_velo_80.mvnx
datacolumns 38
datarows 32
otherdata 1
range 0.0000 0.5170
endheader
time pelvis_tilt  pelvis_list  pelvis_rotation  pelvis_tx  pelvis_ty  pelvis_tz  hip_flexion_r  hip_adduction_r  hip_rotation_r  knee_angle_r  ankle_angle_r  subtalar_angle_r  mtp_angle_r  hip_flexion_l  hip_adduction_l  hip_rotation_l  knee_angle_l  ankle_angle_l  subtalar_angle_l  mtp_angle_l  lumbar_extension  lumbar_bending  lumbar_rotation  arm_flex_r  arm_add_r  arm_rot_r  elbow_flex_r  pro_sup_r  wrist_flex_r  wrist_dev_r  arm_flex_l  arm_add_l  arm_rot_l  elbow_flex_l  pro_sup_l  wrist_flex_l  wrist_dev_l
0.0000	-11.8131	1.6245	-6.7258	0.0000	1.2500	-0.0000	39.6715	-3.0911	-11.0890	44.0126	-4.6555	-6.7266	-0.0000	87.9664	-5.8613	7.0709	106.5741	1.1223	-2.6757	-0.0000	-14.9010	-0.3913	-1.5041	87.7403	10.7543	12.5013	5.0177	113.2179	-27.1208	-14.8691	95.2830	-3.5828	26.3267	15.0182	128.8843	-18.5140	-7.7423	
0.0170	-11.4686	1.9320	-6.9568	0.0000	1.2500	-0.0000	40.1346	-2.7515	-10.6702	47.8512	-3.5263	-6.8091	-0.0000	86.6944	-5.5569	7.1558	103.0378	1.7712	-3.1199	-0.0000	-15.0929	-0.4857	-1.5000	87.6861	10.6286	12.7617	5.1735	113.0467	-27.2032	-14.8084	95.2063	-3.8122	25.5481	15.2444	129.6901	-18.5073	-7.5528	
0.0330	-11.1252	2.2404	-7.1892	0.0000	1.2500	-0.0000	40.5917	-2.4031	-10.2553	51.7428	-2.4004	-6.9011	0.0000	85.4236	-5.2458	7.2413	99.4776	2.4109	-3.5106	0.0000	-15.2847	-0.5804	-1.4970	87.6323	10.5025	13.0218	5.3294	112.8756	-27.2854	-14.7474	95.1276	-4.0411	24.7691	15.4627	130.4935	-18.5010	-7.3638	
0.0500	-10.8239	2.3908	-7.4142	0.0000	1.2500	-0.0000	41.3864	-2.0958	-9.6891	56.1468	-1.1482	-7.0533	-0.0000	83.8452	-4.9348	6.9454	95.6002	2.9847	-3.8139	0.0000	-15.4508	-0.6120	-1.4814	87.6617	10.4238	13.1641	5.4227	112.8040	-27.3299	-14.6848	95.0602	-4.1879	24.2358	15.5848	131.0089	-18.5150	-7.2248	
0.0670	-10.5763	2.2609	-7.5950	0.0000	1.2500	-0.0000	42.6672	-1.8474	-8.8765	61.3316	0.3979	-7.3324	0.0000	81.8866	-4.5671	5.9875	91.3354	3.5214	-4.0539	0.0000	-15.5841	-0.5239	-1.4486	87.8262	10.4233	13.1062	5.4163	112.8812	-27.3137	-14.6147	95.0175	-4.1976	24.0598	15.5833	131.1125	-18.5697	-7.1579	
0.0830	-10.3686	1.9728	-7.7654	0.0000	1.2500	-0.0000	44.2927	-1.6198	-7.9237	66.9525	2.0678	-7.6842	-0.0000	79.6314	-4.1676	4.6544	86.8350	3.9977	-4.2609	-0.0000	-15.6925	-0.3726	-1.4020	88.0737	10.4703	12.9306	5.3476	113.0579	-27.2598	-14.5431	94.9882	-4.1258	24.1299	15.4926	130.9304	-18.6445	-7.1408	
0.1000	-10.2022	1.7324	-8.0214	0.0000	1.2500	-0.0000	46.1699	-1.3697	-6.9773	72.5618	3.4874	-7.9771	0.0000	77.0014	-3.8618	3.4050	82.1134	4.2799	-4.4111	0.0000	-15.7727	-0.2642	-1.3395	88.3310	10.5213	12.7668	5.2647	113.2852	-27.1986	-14.4862	94.9486	-4.0568	24.3586	15.3224	130.5536	-18.6979	-7.1560	
0.1170	-10.0862	1.6282	-8.4190	0.0000	1.2500	-0.0000	48.2582	-1.0845	-6.0997	78.1223	4.6603	-8.1602	-0.0000	73.9015	-3.6766	2.3918	77.0618	4.3432	-4.4735	-0.0000	-15.8173	-0.2428	-1.2646	88.5760	10.5587	12.6598	5.1821	113.5502	-27.1402	-14.4526	94.9116	-4.0211	24.7692	15.0387	129.9431	-18.7110	-7.1919	
0.1330	-10.0117	1.5716	-8.9034	0.0000	1.2500	-0.0000	50.5956	-0.7548	-5.2390	83.6864	5.5877	-8.2710	-0.0000	70.4213	-3.5583	1.4328	71.7540	4.2152	-4.4709	0.0000	-15.8333	-0.2641	-1.1740	88.8307	10.6010	12.5646	5.0846	113.8655	-27.0748	-14.4338	94.8631	-3.9873	25.3384	14.6697	129.1348	-18.7024	-7.2597	
0.1500	-9.9534	1.5046	-9.4048	0.0000	1.2500	-0.0000	53.2009	-0.3429	-4.3714	88.9766	5.8960	-8.2967	-0.0000	66.7502	-3.5273	0.4728	66.4387	3.8392	-4.4452	0.0000	-15.8383	-0.3017	-1.0554	89.0869	10.6599	12.4765	4.9752	114.2204	-27.0036	-14.4201	94.7404	-3.9480	25.9085	14.3218	128.3333	-18.6874	-7.3750	
0.1670	-9.9040	1.4024	-9.9117	0.0000	1.2500	-0.0000	56.1843	0.1607	-3.4432	94.0088	5.1397	-8.1982	-0.0000	62.8285	-3.6023	-0.5438	61.0494	3.2084	-4.4901	-0.0000	-15.8334	-0.3504	-0.9031	89.3594	10.7419	12.3714	4.8420	114.6513	-26.9255	-14.4153	94.4982	-3.8865	26.4502	14.0047	127.5896	-18.6556	-7.5660	
0.1830	-9.8702	1.2892	-10.4360	0.0000	1.2500	-0.0000	59.4334	0.7666	-2.5369	98.7630	3.7655	-7.9890	-0.0000	58.7080	-3.7450	-1.5913	55.6398	2.3299	-4.5217	-0.0000	-15.8171	-0.4151	-0.7229	89.6333	10.8407	12.2732	4.6956	115.1215	-26.8415	-14.4164	94.1826	-3.8202	26.9932	13.7081	126.8523	-18.6176	-7.8041	
0.2000	-9.8477	1.1808	-10.9425	0.0000	1.2500	-0.0000	62.6325	1.4856	-1.8275	102.9094	2.7380	-7.7402	-0.0000	54.7441	-3.9186	-2.5881	50.6433	1.1651	-4.3183	0.0000	-15.8036	-0.4847	-0.5200	89.8567	10.9483	12.2494	4.5730	115.5108	-26.7567	-14.4036	93.8690	-3.7942	27.4685	13.5146	126.1768	-18.6205	-8.0207	
0.2170	-9.8401	1.0714	-11.4253	0.0000	1.2500	-0.0000	65.7250	2.3047	-1.3661	106.3782	2.4494	-7.4336	0.0000	50.9407	-4.1772	-3.5074	46.0259	-0.4312	-3.7531	-0.0000	-15.7946	-0.5510	-0.2913	90.0096	11.0733	12.3444	4.4995	115.7824	-26.6914	-14.3919	93.5498	-3.8327	27.8232	13.4792	125.6085	-18.6878	-8.1990	
0.2330	-9.8440	0.9664	-11.8906	0.0000	1.2500	-0.0000	68.7701	3.1971	-1.1088	109.2481	2.5050	-7.1079	-0.0000	47.2858	-4.4890	-4.3831	41.8265	-2.3280	-2.9490	0.0000	-15.7883	-0.6225	-0.0401	90.1115	11.2071	12.5142	4.4513	115.9731	-26.6254	-14.3661	93.2331	-3.9116	28.1103	13.5525	125.1057	-18.7966	-8.3569	
0.2500	-9.8438	0.8983	-12.3224	0.0000	1.2500	-0.0000	71.6270	4.1286	-1.0681	111.4179	2.6932	-6.9285	-0.0000	44.1165	-4.7208	-5.1902	38.5891	-4.1503	-2.0567	0.0000	-15.7937	-0.7132	0.2179	90.1698	11.3166	12.6943	4.3936	116.0724	-26.5027	-14.2618	93.0184	-4.0046	28.4193	13.6612	124.5940	-18.9251	-8.4792	
0.2670	-9.8472	0.9118	-12.7365	0.0000	1.2500	-0.0000	74.2960	5.1222	-1.3514	112.8341	3.0198	-6.9819	-0.0000	41.5067	-4.8369	-5.8913	36.4378	-5.8457	-1.0010	0.0000	-15.8079	-0.8519	0.4918	90.1478	11.3907	12.8997	4.3200	116.0681	-26.3042	-14.0635	92.9578	-4.1225	28.8676	13.8096	123.9765	-19.0783	-8.5571	
0.2830	-9.8476	0.9622	-13.1171	0.0000	1.2500	-0.0000	76.7837	6.1246	-1.8388	113.5612	3.4821	-7.1878	0.0000	39.3852	-4.9134	-6.4933	35.2421	-7.4814	0.1511	-0.0000	-15.8336	-1.0102	0.7723	90.0826	11.4401	13.1156	4.2377	115.9725	-26.0520	-13.7890	92.9995	-4.2562	29.3376	13.9915	123.3506	-19.2509	-8.5999	
0.3000	-9.8073	0.9479	-13.4013	0.0000	1.2500	-0.0000	78.9545	7.0045	-2.1775	113.6594	3.8573	-7.4421	-0.0000	37.8760	-5.0025	-7.0236	35.1674	-8.8323	1.0303	-0.0000	-15.8883	-1.1160	1.0164	90.0933	11.4645	13.2322	4.1322	115.8115	-25.7530	-13.4241	93.0851	-4.3477	29.5665	14.1182	122.9322	-19.4052	-8.6193	
0.3170	-9.6905	0.7882	-13.5114	0.0000	1.2500	-0.0000	80.8224	7.7099	-2.0939	113.1121	4.0430	-7.7433	-0.0000	37.0986	-5.1352	-7.5507	36.4602	-9.7378	1.4101	0.0000	-15.9932	-1.1108	1.2036	90.2396	11.4514	13.1944	3.9816	115.5464	-25.3674	-12.9027	93.2163	-4.3570	29.3457	14.1597	122.8787	-19.5460	-8.6123	
0.3330	-9.5324	0.5641	-13.5246	0.0000	1.2500	-0.0000	82.3667	8.3089	-1.8213	111.9289	4.1411	-8.0708	-0.0000	36.9341	-5.3162	-7.9991	38.8813	-10.3335	1.5109	0.0000	-16.1274	-1.0529	1.3549	90.4619	11.4128	13.0575	3.8079	115.2162	-24.9381	-12.2908	93.3916	-4.3230	28.8844	14.1508	123.0326	-19.6683	-8.5821	
0.3500	-9.4003	0.4166	-13.6101	0.0000	1.2500	-0.0000	83.3979	8.8542	-1.7617	110.1935	4.2358	-8.3027	-0.0000	37.1472	-5.5537	-8.1849	41.8719	-10.8248	1.6301	-0.0000	-16.2457	-1.0461	1.4893	90.7007	11.3855	12.8767	3.6620	114.9636	-24.5921	-11.7698	93.5465	-4.3045	28.5462	14.0996	123.1375	-19.7198	-8.5486	
0.3670	-9.3247	0.4185	-13.8683	0.0000	1.2500	-0.0000	83.8476	9.3993	-2.1238	107.8902	4.3872	-8.3925	-0.0000	37.7040	-5.8500	-7.9777	45.3284	-11.3310	1.9221	-0.0000	-16.3336	-1.1455	1.6135	90.9660	11.3777	12.6224	3.5624	114.8687	-24.3785	-11.4032	93.6594	-4.3188	28.5077	13.9798	123.0776	-19.6478	-8.5105	
0.3830	-9.2757	0.4975	-14.1994	0.0000	1.2500	-0.0000	83.7820	9.8887	-2.6800	105.0280	4.5355	-8.4048	0.0000	38.6389	-6.1997	-7.4996	49.3373	-11.7318	2.2242	-0.0000	-16.4053	-1.2963	1.7199	91.2477	11.3809	12.3237	3.4897	114.8511	-24.2432	-11.1248	93.7510	-4.3483	28.5926	13.8156	122.9680	-19.5048	-8.4677	
0.4000	-9.2289	0.5772	-14.4735	0.0000	1.2500	-0.0000	83.2173	10.2056	-3.1828	101.7195	4.5833	-8.3902	-0.0000	39.8187	-6.5938	-6.9487	53.6385	-11.8737	2.3567	0.0000	-16.4589	-1.4364	1.8057	91.4565	11.4086	12.1230	3.4387	114.8126	-24.1550	-10.9209	93.8188	-4.3990	28.6348	13.6894	122.8983	-19.3965	-8.4416	
0.4170	-9.1686	0.6389	-14.6600	0.0000	1.2500	-0.0000	82.1430	10.2981	-3.5358	97.9764	4.5238	-8.3067	-0.0000	41.2002	-7.0229	-6.3658	58.2220	-11.6719	2.2099	0.0000	-16.4900	-1.5493	1.8730	91.5430	11.4793	12.1337	3.4132	114.6877	-24.1149	-10.8003	93.8339	-4.4960	28.5412	13.6406	122.9091	-19.3730	-8.4453	
0.4330	-9.1100	0.7012	-14.7894	0.0000	1.2500	-0.0000	80.5682	10.2235	-3.8342	93.7812	4.3624	-8.1927	-0.0000	42.8315	-7.4843	-5.7027	63.1197	-11.2176	1.8836	0.0000	-16.5034	-1.6511	1.9201	91.5567	11.5752	12.2425	3.4099	114.5420	-24.1205	-10.7537	93.8253	-4.6148	28.4051	13.6300	122.9600	-19.3842	-8.4662	
0.4500	-9.0747	0.7446	-14.8225	0.0000	1.2500	-0.0000	78.5415	10.0303	-4.1272	89.2094	4.0221	-8.2008	-0.0000	44.7170	-7.9794	-5.0257	68.1521	-10.6183	1.5231	0.0000	-16.5111	-1.7291	1.9378	91.5566	11.6556	12.2522	3.4127	114.4744	-24.1365	-10.7409	93.8781	-4.6867	28.3396	13.6239	123.0193	-19.3861	-8.4875	
0.4670	-9.0707	0.7544	-14.7305	0.0000	1.2500	-0.0000	76.0264	9.7354	-4.4714	84.1849	3.4498	-8.4511	0.0000	46.8826	-8.5121	-4.3787	73.4033	-9.7452	1.1377	-0.0000	-16.5247	-1.7779	1.9211	91.5929	11.7069	11.9977	3.4180	114.5801	-24.1600	-10.7378	94.0517	-4.6904	28.4063	13.6368	123.0617	-19.3677	-8.5045	
0.4830	-9.0899	0.7453	-14.5420	0.0000	1.2500	-0.0000	73.0635	9.3397	-4.8417	78.7889	2.7052	-8.8096	-0.0000	49.3089	-9.0606	-3.7122	78.7941	-8.7287	0.7281	0.0000	-16.5330	-1.8028	1.8750	91.6160	11.7426	11.6442	3.4310	114.7638	-24.1942	-10.7689	94.2866	-4.6461	28.5435	13.6549	123.1131	-19.3401	-8.5218	
0.5000	-9.1294	0.7421	-14.3037	0.0000	1.2500	-0.0000	69.8181	8.8631	-5.1644	73.3351	1.8769	-9.0579	0.0000	51.9319	-9.5881	-2.9553	83.8963	-8.0532	0.4382	-0.0000	-16.5146	-1.8071	1.8057	91.5348	11.7622	11.4907	3.4472	114.8391	-24.2128	-10.8675	94.4906	-4.5468	28.6794	13.6026	123.2184	-19.2912	-8.5371	
0.5170	-9.1951	0.7409	-14.0272	0.0000	1.2500	-0.0000	66.2284	8.3193	-5.4435	67.7839	0.9872	-9.1889	-0.0000	54.7875	-10.1213	-2.1101	88.6268	-8.0793	0.3569	0.0000	-16.4571	-1.7899	1.7174	91.3051	11.7666	11.7262	3.4476	114.6727	-24.1886	-11.0639	94.6461	-4.3771	28.7970	13.4229	123.3953	-19.2092	-8.5518	
